<svg width="164" height="128" viewBox="0 0 164 128" fill="none" xmlns="http://www.w3.org/2000/svg">
<path d="M59.4257 125.876C1.2715 117.312 2.25 58.9153 2.25 41.25H163.75C163.75 50.3415 164.163 116.157 101.406 126.36C91.7067 127.937 70.7307 127.543 59.4257 125.876Z" fill="#574747"/>
<path d="M156.093 23.4233C167.811 -3.05325 116.521 -1.53325 103.677 2.60875C97.0648 1.83925 90.1582 1.40225 83 1.40225C38.4022 1.40225 2.24999 16.7353 2.24999 41.5112C2.24999 46.304 3.63224 50.9115 6.13549 55.2435C-14.4178 82.3755 26.304 87.477 49.7595 82.366C59.9055 84.9167 71.1345 86.375 83 86.375C127.598 86.375 163.75 66.2872 163.75 41.516C163.75 34.7235 160.952 28.672 156.093 23.4233Z" fill="#786E6E"/>
<path d="M83 79.25C122.35 79.25 154.25 64.3635 154.25 46C154.25 27.6365 122.35 12.75 83 12.75C43.6497 12.75 11.75 27.6365 11.75 46C11.75 64.3635 43.6497 79.25 83 79.25Z" fill="#FFCC4D"/>
<path d="M16.5 36.5C13.9255 26.1973 26 8 49.75 12.75C54.5 8 63.2305 3.25 78.25 3.25C87.75 3.25 104.907 11.6813 97.25 27C92.5 36.5 73.5 50.75 49.75 41.25C45 46 21.25 55.5 16.5 36.5Z" fill="#77B255"/>
<path d="M54.5 41.25C53.3172 41.421 52.2627 41.5968 51.2795 41.7773C74.3075 50.0708 92.6045 36.291 97.25 27C102.37 16.759 96.3902 9.615 89.0277 5.99075C90.8992 14.6452 83.6697 37.0843 54.5 41.25Z" fill="#5C913B"/>
<path d="M21.25 36.5C23.7437 30.2633 45 22.25 68.75 50.75C73.5 55.5 90.5335 58.2835 97.25 65C102 69.75 97.25 74.5 78.25 74.5C59.25 74.5 11.75 60.25 21.25 36.5Z" fill="#D99E82"/>
<path d="M26.1948 55.5855C38.2978 67.6648 65.0972 74.5 78.25 74.5C97.25 74.5 102 69.75 97.25 65C95.7015 63.4515 93.5925 62.1168 91.227 60.915C76.008 69.1468 35.747 60.231 26.1948 55.5855Z" fill="#B27962"/>
<path d="M125.75 50.7547C124.757 50.7547 123.741 50.5932 122.743 50.2607L108.493 45.5107C103.515 43.8482 100.827 38.4712 102.484 33.4932C104.142 28.52 109.51 25.8267 114.502 27.4845L128.752 32.2345C133.73 33.897 136.418 39.274 134.761 44.252C133.435 48.2372 129.73 50.7547 125.75 50.7547ZM121 65H111.5C108.873 65 106.75 62.8768 106.75 60.25C106.75 57.6233 108.873 55.5 111.5 55.5H121C123.627 55.5 125.75 57.6233 125.75 60.25C125.75 62.8768 123.627 65 121 65Z" fill="#FFE8B6"/>
</svg>
