<svg width="738" height="238" viewBox="0 0 738 238" fill="none" xmlns="http://www.w3.org/2000/svg">
<path d="M0.5 237.581H737.5V233.506H733.168C733.563 232.316 733.775 231.073 733.794 229.819C733.787 227.249 732.989 224.742 731.508 222.641C730.027 220.54 727.935 218.946 725.517 218.075C725.517 218.075 725.517 217.965 725.517 217.891C725.512 217.016 725.24 216.163 724.735 215.447C724.231 214.732 723.519 214.188 722.696 213.89L722.106 212.047C722.224 211.879 722.288 211.68 722.29 211.475C722.288 211.277 722.229 211.084 722.122 210.917C722.014 210.751 721.862 210.618 721.682 210.535L721.313 204.765L720.944 210.535C720.765 210.618 720.612 210.751 720.505 210.917C720.397 211.084 720.339 211.277 720.336 211.475C720.336 211.683 720.407 211.885 720.539 212.047L719.93 213.89C719.107 214.188 718.396 214.732 717.891 215.447C717.387 216.163 717.114 217.016 717.11 217.891C717.1 217.952 717.1 218.014 717.11 218.075C715.253 218.747 713.581 219.849 712.232 221.291C710.883 222.733 709.895 224.474 709.348 226.372V211.826H709.569C709.828 211.826 710.077 211.723 710.26 211.539C710.444 211.356 710.547 211.108 710.547 210.848V210.277C710.547 210.018 710.444 209.769 710.26 209.586C710.077 209.403 709.828 209.3 709.569 209.3H708.224C708.282 208.928 708.313 208.552 708.316 208.175C708.314 206.918 707.992 205.683 707.379 204.586C706.766 203.489 705.882 202.567 704.813 201.907C703.528 201.105 702.414 200.059 701.531 198.828C701.615 198.75 701.681 198.656 701.725 198.551C701.77 198.447 701.791 198.334 701.789 198.22C701.792 198.056 701.746 197.895 701.658 197.757C701.569 197.619 701.442 197.511 701.292 197.445L701.07 193.998H700.812L700.609 197.353C700.48 197.407 700.366 197.492 700.278 197.601C700.191 197.711 700.132 197.84 700.108 197.978C700.084 198.117 700.096 198.258 700.142 198.391C700.187 198.523 700.266 198.642 700.37 198.736C699.49 199.976 698.367 201.023 697.07 201.815C696 202.475 695.117 203.397 694.504 204.494C693.891 205.591 693.568 206.826 693.567 208.083C693.569 208.46 693.6 208.836 693.659 209.208H692.369C692.108 209.208 691.857 209.31 691.671 209.493C691.485 209.675 691.378 209.924 691.373 210.185V210.756C691.378 211.017 691.485 211.266 691.671 211.448C691.857 211.631 692.108 211.733 692.369 211.733H692.553V225.616H689.345C690.169 224.092 690.606 222.389 690.617 220.656C690.617 214.628 685.086 209.355 676.919 206.405C672.012 204.727 667.447 202.179 663.442 198.883C663.586 198.617 663.662 198.32 663.664 198.017C663.692 197.628 663.597 197.24 663.392 196.909C663.186 196.578 662.881 196.32 662.521 196.173L662.023 188.578H661.451L660.972 196.173C660.607 196.317 660.298 196.574 660.09 196.905C659.881 197.237 659.783 197.626 659.81 198.017C659.812 198.32 659.888 198.617 660.032 198.883C656.039 202.186 651.479 204.735 646.573 206.405C643.24 207.544 640.155 209.308 637.484 211.604V208.101H638.056V205.484H639.033V202.128H637.484V175.875H638.056V173.257H639.033V169.902H637.429C637.37 167.017 637.161 164.137 636.802 161.274C636.802 161.274 633.281 138.118 632.599 138.118C631.917 138.118 628.266 160.997 628.266 160.997C627.874 163.951 627.64 166.923 627.566 169.902H625.943V173.257H626.92V175.875H627.326V202.202H625.777C623.601 195.915 619.608 190.416 614.305 186.399C609.002 182.382 602.626 180.029 595.985 179.636V178.456C595.985 178.352 595.964 178.249 595.924 178.153C595.885 178.057 595.826 177.969 595.753 177.896C595.679 177.822 595.592 177.764 595.495 177.724C595.399 177.684 595.296 177.664 595.192 177.664H594.584L594.141 165.072C595.574 165.566 597.106 165.698 598.603 165.459C599.796 165.25 600.936 164.804 601.956 164.149C602.975 163.494 603.853 162.642 604.539 161.643C602.763 162.766 600.653 163.24 598.567 162.982C596.481 162.725 594.549 161.753 593.1 160.232C591.65 158.71 590.772 156.733 590.616 154.638C590.46 152.542 591.034 150.457 592.242 148.737C590.818 149.616 589.665 150.872 588.91 152.366C588.156 153.86 587.829 155.533 587.966 157.201C588.104 158.869 588.7 160.466 589.689 161.816C590.678 163.166 592.021 164.216 593.57 164.85L593.072 177.645H592.445C592.346 177.645 592.247 177.665 592.156 177.703C592.064 177.741 591.981 177.796 591.911 177.866C591.84 177.937 591.785 178.02 591.747 178.112C591.709 178.203 591.689 178.302 591.689 178.401V179.655C585.032 180.144 578.672 182.603 573.419 186.721C568.165 190.838 564.257 196.426 562.192 202.773V175.728H562.8V172.372H564.054V168.058H562.081V134.302H562.8V130.947H564.054V126.651H561.989C561.914 122.952 561.644 119.26 561.177 115.589C561.177 115.589 556.679 85.9073 555.794 85.8889C554.909 85.8704 550.263 115.239 550.263 115.239C549.763 119.024 549.467 122.834 549.378 126.651H547.314V130.947H548.567V134.302H549.286V168.058H547.314V172.372H548.567V175.728H549.286V188.467C540.4 170.953 524.213 158.545 505.261 156.278V153.678C505.261 152.443 504.634 151.429 503.878 151.429H501.26L499.417 132.311H498.587L496.743 151.429H494.089C493.333 151.429 492.724 152.443 492.724 153.678V156.278C485.424 157.234 478.384 159.62 472.007 163.299C465.63 166.978 460.04 171.878 455.557 177.719C453.087 154.895 439.924 136.016 405.116 122.024C382.366 112.805 374.734 99.384 372.3 93.042C375.987 92.6365 378.716 90.8482 378.716 88.7096C378.716 86.571 376.282 85.0224 372.964 84.4877L372.429 70.0707C373.535 69.7204 374.273 69.0936 374.273 68.3377C374.273 67.5819 373.462 66.9182 372.3 66.4941L371.784 52.3721C378.332 53.7932 385.167 52.967 391.188 50.0269C397.208 47.0868 402.063 42.2042 404.969 36.1668C402.06 38.6275 398.705 40.5053 395.087 41.6976C389.508 43.5788 383.499 43.7756 377.81 42.2636C372.12 40.7516 367.001 37.5977 363.092 33.1953C359.184 28.793 356.658 23.3371 355.829 17.5084C355.001 11.6796 355.908 5.73612 358.436 0.419319C354.273 3.97888 351.166 8.6116 349.452 13.8138C347.738 19.016 347.482 24.5885 348.714 29.9255C349.946 35.2626 352.617 40.1598 356.437 44.0848C360.258 48.0098 365.081 50.8124 370.383 52.1878L369.516 66.4757C368.078 66.7338 367.009 67.4528 367.009 68.3193C367.009 69.1858 367.968 69.8679 369.295 70.1629L368.428 84.4508C365.055 84.9671 362.566 86.6632 362.566 88.6911C362.566 90.7191 365.534 92.7286 369.387 93.042C366.954 99.4209 359.303 112.879 336.571 122.097C299.533 136.846 286.996 157.347 285.798 182.199C281.367 175.19 275.454 169.237 268.476 164.759C261.497 160.281 253.622 157.386 245.405 156.278V153.678C245.405 152.443 244.796 151.429 244.022 151.429H241.404L239.56 132.311H238.731L236.887 151.429H234.251C233.477 151.429 232.868 152.443 232.868 153.678V156.278C211.962 158.785 194.41 173.608 186.317 194.035V175.728H187.055V172.372H188.29V168.058H186.317V134.302H187.055V130.947H188.29V126.651H186.243C186.169 122.952 185.898 119.26 185.432 115.589C185.432 115.589 180.915 85.9073 180.049 85.8889C179.182 85.8704 174.518 115.239 174.518 115.239C174.017 119.024 173.722 122.834 173.633 126.651H171.421V130.947H172.656V134.302H173.393V168.058H171.421V172.372H172.656V175.728H173.393V198.81C170.803 193.352 166.791 188.692 161.78 185.319C156.768 181.945 150.941 179.982 144.91 179.636V178.456C144.912 178.353 144.894 178.25 144.856 178.154C144.818 178.058 144.762 177.971 144.689 177.897C144.617 177.823 144.531 177.764 144.436 177.724C144.341 177.684 144.239 177.663 144.135 177.664H143.527L143.029 165.072C144.462 165.566 145.994 165.698 147.491 165.459C148.699 165.255 149.854 164.813 150.889 164.158C151.924 163.502 152.818 162.647 153.519 161.643C152.526 162.256 151.425 162.675 150.275 162.878C148.509 163.184 146.693 162.963 145.053 162.243C143.413 161.522 142.022 160.334 141.053 158.827C140.085 157.319 139.583 155.56 139.61 153.768C139.637 151.977 140.191 150.234 141.204 148.756C139.783 149.633 138.632 150.884 137.875 152.373C137.119 153.862 136.788 155.53 136.917 157.195C137.047 158.859 137.632 160.456 138.61 161.81C139.587 163.164 140.918 164.222 142.458 164.869L141.978 177.664H141.352C141.249 177.662 141.148 177.681 141.053 177.719C140.958 177.757 140.871 177.813 140.798 177.885C140.663 178.031 140.584 178.22 140.577 178.419V179.673C134.024 180.152 127.754 182.541 122.544 186.545C117.335 190.549 113.413 195.992 111.264 202.202H110.158V175.875H110.711V173.257H111.688V169.902H110.084C110.025 167.017 109.816 164.137 109.457 161.274C109.457 161.274 105.936 138.118 105.254 138.118C104.572 138.118 100.903 160.997 100.903 160.997C100.507 163.95 100.279 166.923 100.221 169.902H98.5983V173.257H99.557V175.875H100.055V202.202H98.5245V205.557H99.4832V208.175H100.055V211.272C97.4948 209.182 94.5866 207.56 91.4635 206.479C86.5528 204.809 81.9864 202.26 77.9868 198.957C78.1305 198.691 78.2065 198.393 78.208 198.091C78.2354 197.7 78.1376 197.31 77.9288 196.979C77.7199 196.647 77.4109 196.391 77.0465 196.247L76.5672 188.651H76.0879L75.6085 196.247C75.2441 196.391 74.9351 196.647 74.7263 196.979C74.5174 197.31 74.4196 197.7 74.447 198.091C74.4486 198.393 74.5245 198.691 74.6683 198.957C70.6702 202.252 66.1113 204.8 61.2099 206.479C52.969 209.429 47.4935 214.702 47.4935 220.73C47.5017 222.465 47.9454 224.17 48.784 225.689H45.5393V211.807H45.7237C45.9845 211.807 46.235 211.705 46.4212 211.522C46.6074 211.339 46.7144 211.091 46.7192 210.83V210.258C46.7144 209.998 46.6074 209.749 46.4212 209.566C46.235 209.384 45.9845 209.281 45.7237 209.281H44.4331C44.492 208.909 44.5229 208.533 44.5253 208.157C44.5239 206.9 44.2014 205.665 43.5883 204.567C42.9753 203.47 42.0921 202.548 41.0225 201.888C39.7248 201.097 38.6019 200.049 37.7224 198.81C37.8121 198.736 37.8836 198.643 37.9316 198.538C37.9795 198.432 38.0026 198.317 37.9989 198.201C38.0002 198.035 37.9517 197.873 37.8596 197.735C37.7676 197.597 37.6363 197.49 37.4827 197.427L37.3721 193.998H37.114L36.8928 197.353C36.7426 197.419 36.6152 197.527 36.5267 197.665C36.4381 197.803 36.3923 197.964 36.395 198.128C36.3929 198.241 36.4148 198.354 36.4593 198.459C36.5038 198.564 36.5698 198.658 36.6531 198.736C35.7755 199.971 34.6598 201.018 33.3715 201.815C32.3019 202.475 31.4187 203.397 30.8056 204.494C30.1926 205.591 29.87 206.826 29.8686 208.083C29.8405 208.457 29.8405 208.833 29.8686 209.208H28.5228C28.2637 209.208 28.0151 209.311 27.8319 209.494C27.6486 209.677 27.5457 209.926 27.5457 210.185V210.756C27.5457 211.015 27.6486 211.264 27.8319 211.447C28.0151 211.63 28.2637 211.733 28.5228 211.733H28.7625V226.279C28.2094 224.385 27.2187 222.647 25.8705 221.206C24.5223 219.765 22.8542 218.661 21.0009 217.983C21.0009 217.983 21.0009 217.873 21.0009 217.799C20.9926 216.922 20.7161 216.069 20.2086 215.353C19.701 214.638 18.9868 214.095 18.1617 213.798L17.5534 211.955C17.6848 211.793 17.7564 211.591 17.7562 211.383C17.7232 211.205 17.6448 211.038 17.5285 210.899C17.4123 210.761 17.262 210.654 17.0925 210.59L16.7237 204.82L16.2997 210.59C16.12 210.674 15.9675 210.806 15.8598 210.973C15.7522 211.139 15.6938 211.332 15.6913 211.531C15.699 211.737 15.7698 211.937 15.8941 212.102L15.2857 213.946C14.4597 214.245 13.7459 214.791 13.2412 215.51C12.7365 216.229 12.4655 217.086 12.465 217.965C12.465 217.965 12.465 218.094 12.465 218.149C10.0611 219.014 7.97947 220.595 6.49976 222.677C5.02004 224.76 4.21307 227.246 4.18721 229.801C4.20693 231.055 4.41831 232.298 4.81404 233.488H0.5V237.581ZM705.458 218.131C705.382 217.391 705.464 216.643 705.699 215.937C705.934 215.231 706.317 214.584 706.822 214.038C707.332 214.581 707.717 215.228 707.953 215.935C708.188 216.641 708.268 217.39 708.187 218.131V225.818H705.458V218.131ZM697.42 217.319C697.267 216.787 697.241 216.227 697.342 215.682C697.443 215.138 697.669 214.624 698.002 214.182C698.336 213.74 698.767 213.381 699.263 213.134C699.758 212.887 700.305 212.758 700.858 212.758C701.412 212.758 701.958 212.887 702.454 213.134C702.95 213.381 703.381 213.74 703.714 214.182C704.048 214.624 704.274 215.138 704.375 215.682C704.476 216.227 704.449 216.787 704.297 217.319V225.818H699.079V225.689H697.383L697.42 217.319ZM693.548 218.131C693.467 217.39 693.547 216.641 693.782 215.935C694.018 215.228 694.404 214.581 694.913 214.038C695.414 214.586 695.794 215.234 696.026 215.939C696.258 216.645 696.337 217.392 696.259 218.131V225.689H693.548V218.131ZM41.7415 218.131C41.6602 217.39 41.7401 216.641 41.9755 215.935C42.211 215.228 42.5966 214.581 43.1057 214.038C43.6076 214.586 43.9871 215.234 44.2191 215.939C44.4512 216.645 44.5304 217.392 44.4516 218.131V225.689H41.7415V218.131ZM33.6849 217.319C33.687 216.291 34.0249 215.292 34.6472 214.473C35.2695 213.654 36.1422 213.061 37.1325 212.784C38.1227 213.061 38.9954 213.654 39.6177 214.473C40.24 215.292 40.5779 216.291 40.58 217.319V225.689H38.9023V225.818H33.6849V217.319ZM29.7949 218.131C29.7185 217.391 29.8007 216.643 30.0359 215.937C30.2711 215.231 30.6541 214.584 31.1592 214.038C31.6683 214.581 32.0539 215.228 32.2894 215.935C32.5249 216.641 32.6047 217.39 32.5234 218.131V225.818H29.8133L29.7949 218.131Z" fill="#E5DCCF"/>
</svg>
